<svg fill="none" height="48" viewBox="0 0 48 48" width="48" xmlns="http://www.w3.org/2000/svg"><path clip-rule="evenodd" d="m13.2886 21.8341c-.7508-.3501-1.0756-1.2426-.7255-1.9934s1.2426-1.0756 1.9934-.7255l2.4857 1.1591 1.1591-2.4857c.3501-.7508 1.2425-1.0757 1.9934-.7255.7508.3501 1.0756 1.2425.7255 1.9933l-1.1591 2.4857 2.4857 1.1591c.7508.3501 1.0756 1.2426.7255 1.9934s-1.2426 1.0756-1.9934.7255l-2.4857-1.1591-1.159 2.4857c-.3502.7508-1.2426 1.0757-1.9934.7256-.7508-.3502-1.0757-1.2426-.7256-1.9934l1.1591-2.4857z" fill="#4f5af8" fill-rule="evenodd"/><path clip-rule="evenodd" d="m33.1152 7.5565c-.3501-.75081-.0252-1.64328.7256-1.99339s1.6432-.02528 1.9934.72553l1.159 2.48568 2.4857-1.15909c.7508-.35011 1.6433-.02528 1.9934.72553s.0253 1.64328-.7255 1.99344l-2.4857 1.159 1.1591 2.4857c.3501.7508.0253 1.6433-.7255 1.9934-.7509.3501-1.6433.0253-1.9934-.7255l-1.1591-2.4857-2.4857 1.1591c-.7508.3501-1.6433.0253-1.9934-.7255-.3501-.7509-.0253-1.6433.7255-1.9934l2.4857-1.1591z" fill="#4f5af8" fill-rule="evenodd"/><g stroke="#4f5af8" stroke-linecap="round" stroke-linejoin="round" stroke-width="3"><path d="m15.5 15.5001c-.5-2.6666-.2-8.19996 5-8.99996s7 .49986 9 1.49986"/><path d="m9 40c6 3.5 9.7371 2.2629 12 0 3-3 1-8-.5-11"/></g></svg>