<svg fill="none" height="48" viewBox="0 0 48 48" width="48" xmlns="http://www.w3.org/2000/svg"><g fill="#4f5af8"><path d="m12.34 34.0881c1.12 0 1.68.476 1.68 1.428 0 .9893-.56 1.484-1.68 1.484h-9.464c-1.13867 0-1.708-.4947-1.708-1.484 0-.952.56933-1.428 1.708-1.428h2.912v-12.768l-2.688 1.652c-.26133.1493-.49467.224-.7.224-.392 0-.728-.168-1.008-.504-.26133-.336-.392-.7094-.392-1.12 0-.5414.24267-.9614.728-1.26l4.34-2.688c.56-.336 1.092-.504 1.596-.504.52267 0 .94267.1586 1.26.476.31733.3173.476.756.476 1.316v15.176z"/><path d="m29.0451 34.0881c1.12 0 1.68.476 1.68 1.428 0 .9893-.56 1.484-1.68 1.484h-10.64c-.4854 0-.868-.14-1.148-.42-.28-.2987-.42-.6627-.42-1.092 0-.56.2146-1.064.644-1.512l6.384-6.86c.784-.8587 1.3533-1.6427 1.708-2.352.3733-.728.56-1.4467.56-2.156 0-.8774-.252-1.5494-.756-2.016-.504-.4667-1.2227-.7-2.156-.7-.7654 0-1.512.1493-2.24.448-.7094.28-1.428.672-2.156 1.176-.1867.1306-.3734.2426-.56.336-.1867.0746-.3734.112-.56.112-.3174 0-.5974-.1494-.84-.448-.224-.2987-.336-.6534-.336-1.064 0-.28.0466-.5227.14-.728.112-.2054.28-.4014.504-.588.8213-.6534 1.7826-1.1667 2.884-1.54 1.1013-.392 2.2026-.588 3.304-.588 1.9226 0 3.4533.4853 4.592 1.456 1.1573.9706 1.736 2.2773 1.736 3.92 0 1.1386-.2427 2.212-.728 3.22-.4854.9893-1.3067 2.1-2.464 3.332l-4.844 5.152z"/><path d="m46.312 16.08c.304 0 .552.104.744.312.208.192.312.44.312.744s-.104.56-.312.768c-.192.192-.44.288-.744.288h-3.744v3.72c0 .304-.104.56-.312.768-.192.208-.44.312-.744.312s-.56-.104-.768-.312c-.192-.208-.288-.464-.288-.768v-3.72h-3.744c-.304 0-.56-.096-.768-.288-.192-.208-.288-.464-.288-.768s.096-.552.288-.744c.208-.208.464-.312.768-.312h3.744v-3.744c0-.304.096-.552.288-.744.208-.208.464-.312.768-.312s.552.104.744.312c.208.192.312.44.312.744v3.744z"/></g></svg>