<svg fill="none" height="48" viewBox="0 0 48 48" width="48" xmlns="http://www.w3.org/2000/svg"><circle cx="24" cy="24" r="18.5" stroke="#4f5af8" stroke-width="3"/><path d="m30.3887 28.224c0 1.28-.448 2.36-1.344 3.24-.88.88-2.072 1.432-3.576 1.656v1.512c0 .368-.112.664-.336.888-.224.24-.52.36-.888.36s-.664-.12-.888-.36c-.224-.224-.336-.52-.336-.888v-1.464c-.912-.08-1.8-.272-2.664-.576s-1.608-.704-2.232-1.2c-.208-.144-.352-.304-.432-.48s-.12-.392-.12-.648c0-.336.096-.632.288-.888.208-.256.44-.384.696-.384.16 0 .304.032.432.096.144.048.328.136.552.264.736.48 1.456.832 2.16 1.056.72.224 1.472.336 2.256.336 1.072 0 1.896-.208 2.472-.624.592-.416.888-1.016.888-1.8 0-.464-.16-.84-.48-1.128s-.72-.512-1.2-.672c-.48-.176-1.152-.376-2.016-.6-1.2-.304-2.176-.608-2.928-.912-.752-.32-1.4-.8-1.944-1.44s-.816-1.504-.816-2.592c0-1.296.464-2.4 1.392-3.312s2.144-1.48 3.648-1.704v-1.512c0-.368.112-.664.336-.888.224-.24.52-.36.888-.36s.664.12.888.36c.224.224.336.52.336.888v1.488c1.616.208 3.008.792 4.176 1.752.384.288.576.664.576 1.128 0 .336-.104.632-.312.888-.192.256-.424.384-.696.384-.144 0-.288-.024-.432-.072-.128-.048-.304-.144-.528-.288-.656-.464-1.28-.808-1.872-1.032-.576-.24-1.264-.36-2.064-.36-.992 0-1.784.224-2.376.672-.592.432-.888 1.032-.888 1.8 0 .528.168.96.504 1.296.336.32.76.568 1.272.744s1.208.376 2.088.6c1.168.288 2.12.584 2.856.888s1.36.768 1.872 1.392c.528.608.792 1.44.792 2.496z" fill="#4f5af8"/></svg>