<svg width="0" height="0">
  <symbol id="icon12Plus" viewBox="0 0 48 48" fill="none" xmlns="http://www.w3.org/2000/svg">
    <g fill="#4f5af8">
      <path d="m12.34 34.0881c1.12 0 1.68.476 1.68 1.428 0 .9893-.56 1.484-1.68 1.484h-9.464c-1.13867 0-1.708-.4947-1.708-1.484 0-.952.56933-1.428 1.708-1.428h2.912v-12.768l-2.688 1.652c-.26133.1493-.49467.224-.7.224-.392 0-.728-.168-1.008-.504-.26133-.336-.392-.7094-.392-1.12 0-.5414.24267-.9614.728-1.26l4.34-2.688c.56-.336 1.092-.504 1.596-.504.52267 0 .94267.1586 1.26.476.31733.3173.476.756.476 1.316v15.176z"></path>
      <path d="m29.0451 34.0881c1.12 0 1.68.476 1.68 1.428 0 .9893-.56 1.484-1.68 1.484h-10.64c-.4854 0-.868-.14-1.148-.42-.28-.2987-.42-.6627-.42-1.092 0-.56.2146-1.064.644-1.512l6.384-6.86c.784-.8587 1.3533-1.6427 1.708-2.352.3733-.728.56-1.4467.56-2.156 0-.8774-.252-1.5494-.756-2.016-.504-.4667-1.2227-.7-2.156-.7-.7654 0-1.512.1493-2.24.448-.7094.28-1.428.672-2.156 1.176-.1867.1306-.3734.2426-.56.336-.1867.0746-.3734.112-.56.112-.3174 0-.5974-.1494-.84-.448-.224-.2987-.336-.6534-.336-1.064 0-.28.0466-.5227.14-.728.112-.2054.28-.4014.504-.588.8213-.6534 1.7826-1.1667 2.884-1.54 1.1013-.392 2.2026-.588 3.304-.588 1.9226 0 3.4533.4853 4.592 1.456 1.1573.9706 1.736 2.2773 1.736 3.92 0 1.1386-.2427 2.212-.728 3.22-.4854.9893-1.3067 2.1-2.464 3.332l-4.844 5.152z"></path>
      <path d="m46.312 16.08c.304 0 .552.104.744.312.208.192.312.44.312.744s-.104.56-.312.768c-.192.192-.44.288-.744.288h-3.744v3.72c0 .304-.104.56-.312.768-.192.208-.44.312-.744.312s-.56-.104-.768-.312c-.192-.208-.288-.464-.288-.768v-3.72h-3.744c-.304 0-.56-.096-.768-.288-.192-.208-.288-.464-.288-.768s.096-.552.288-.744c.208-.208.464-.312.768-.312h3.744v-3.744c0-.304.096-.552.288-.744.208-.208.464-.312.768-.312s.552.104.744.312c.208.192.312.44.312.744v3.744z"></path>
    </g>
  </symbol>
  <symbol id="iconCoin" viewBox="0 0 48 48" fill="none" xmlns="http://www.w3.org/2000/svg">
    <circle cx="24" cy="24" r="18.5" stroke="#4f5af8" stroke-width="3"></circle>
    <path d="m30.3887 28.224c0 1.28-.448 2.36-1.344 3.24-.88.88-2.072 1.432-3.576 1.656v1.512c0 .368-.112.664-.336.888-.224.24-.52.36-.888.36s-.664-.12-.888-.36c-.224-.224-.336-.52-.336-.888v-1.464c-.912-.08-1.8-.272-2.664-.576s-1.608-.704-2.232-1.2c-.208-.144-.352-.304-.432-.48s-.12-.392-.12-.648c0-.336.096-.632.288-.888.208-.256.44-.384.696-.384.16 0 .304.032.432.096.144.048.328.136.552.264.736.48 1.456.832 2.16 1.056.72.224 1.472.336 2.256.336 1.072 0 1.896-.208 2.472-.624.592-.416.888-1.016.888-1.8 0-.464-.16-.84-.48-1.128s-.72-.512-1.2-.672c-.48-.176-1.152-.376-2.016-.6-1.2-.304-2.176-.608-2.928-.912-.752-.32-1.4-.8-1.944-1.44s-.816-1.504-.816-2.592c0-1.296.464-2.4 1.392-3.312s2.144-1.48 3.648-1.704v-1.512c0-.368.112-.664.336-.888.224-.24.52-.36.888-.36s.664.12.888.36c.224.224.336.52.336.888v1.488c1.616.208 3.008.792 4.176 1.752.384.288.576.664.576 1.128 0 .336-.104.632-.312.888-.192.256-.424.384-.696.384-.144 0-.288-.024-.432-.072-.128-.048-.304-.144-.528-.288-.656-.464-1.28-.808-1.872-1.032-.576-.24-1.264-.36-2.064-.36-.992 0-1.784.224-2.376.672-.592.432-.888 1.032-.888 1.8 0 .528.168.96.504 1.296.336.32.76.568 1.272.744s1.208.376 2.088.6c1.168.288 2.12.584 2.856.888s1.36.768 1.872 1.392c.528.608.792 1.44.792 2.496z" fill="#4f5af8"></path>
  </symbol>
  <symbol id="iconDetour" viewBox="0 0 48 48" fill="none" xmlns="http://www.w3.org/2000/svg">
    <path clip-rule="evenodd" d="m13.2886 21.8341c-.7508-.3501-1.0756-1.2426-.7255-1.9934s1.2426-1.0756 1.9934-.7255l2.4857 1.1591 1.1591-2.4857c.3501-.7508 1.2425-1.0757 1.9934-.7255.7508.3501 1.0756 1.2425.7255 1.9933l-1.1591 2.4857 2.4857 1.1591c.7508.3501 1.0756 1.2426.7255 1.9934s-1.2426 1.0756-1.9934.7255l-2.4857-1.1591-1.159 2.4857c-.3502.7508-1.2426 1.0757-1.9934.7256-.7508-.3502-1.0757-1.2426-.7256-1.9934l1.1591-2.4857z" fill="#4f5af8" fill-rule="evenodd"></path>
    <path clip-rule="evenodd" d="m33.1152 7.5565c-.3501-.75081-.0252-1.64328.7256-1.99339s1.6432-.02528 1.9934.72553l1.159 2.48568 2.4857-1.15909c.7508-.35011 1.6433-.02528 1.9934.72553s.0253 1.64328-.7255 1.99344l-2.4857 1.159 1.1591 2.4857c.3501.7508.0253 1.6433-.7255 1.9934-.7509.3501-1.6433.0253-1.9934-.7255l-1.1591-2.4857-2.4857 1.1591c-.7508.3501-1.6433.0253-1.9934-.7255-.3501-.7509-.0253-1.6433.7255-1.9934l2.4857-1.1591z" fill="#4f5af8" fill-rule="evenodd"></path>
    <g stroke="#4f5af8" stroke-linecap="round" stroke-linejoin="round" stroke-width="3">
      <path d="m15.5 15.5001c-.5-2.6666-.2-8.19996 5-8.99996s7 .49986 9 1.49986"></path>
      <path d="m9 40c6 3.5 9.7371 2.2629 12 0 3-3 1-8-.5-11"></path>
    </g>
  </symbol>
</svg>