<svg fill="none" height="40" viewBox="0 0 144 40" width="144" xmlns="http://www.w3.org/2000/svg"><g fill="#323333"><path d="m51.362 34.126c-.9147 0-1.7127-.1867-2.394-.56-.672-.3827-1.19-.9287-1.554-1.638s-.546-1.5447-.546-2.506c0-1.0827.2053-2.0347.616-2.856s.994-1.4513 1.75-1.89c.756-.448 1.638-.672 2.646-.672.6533 0 1.2507.0887 1.792.266.5507.168 1.0033.392 1.358.672.2707.1773.406.4153.406.714 0 .2053-.0653.3827-.196.532-.1213.14-.28.21-.476.21-.168 0-.322-.0513-.462-.154-.672-.5133-1.4607-.77-2.366-.77-1.0173 0-1.8107.3547-2.38 1.064-.5693.7-.854 1.666-.854 2.898 0 1.036.238 1.834.714 2.394.4853.5507 1.1713.826 2.058.826.8027 0 1.5913-.2567 2.366-.77.1587-.0933.308-.14.448-.14.1773 0 .322.0653.434.196s.168.2893.168.476c0 .28-.1213.5133-.364.7-.3547.2987-.812.5413-1.372.728-.5507.1867-1.148.28-1.792.28z"/><path d="m59.3556 26.986c.924 0 1.6146.21 2.072.63.4573.42.686 1.0547.686 1.904 0 .1773-.0047.3127-.014.406l-.266 3.346c-.0187.2613-.1074.462-.266.602-.1494.14-.3547.21-.616.21-.2427 0-.4387-.0747-.588-.224-.14-.1587-.2007-.3593-.182-.602l.014-.266c-.1867.3547-.448.63-.784.826s-.7187.294-1.148.294c-.448 0-.854-.084-1.218-.252-.3547-.1773-.6347-.4153-.84-.714-.2054-.308-.308-.6533-.308-1.036 0-.5227.1306-.938.392-1.246.2706-.3173.7-.546 1.288-.686.588-.1493 1.372-.224 2.352-.224h.504l.014-.266c.0373-.4667-.0514-.812-.266-1.036-.2147-.224-.5554-.336-1.022-.336-.5507 0-1.1807.182-1.89.546-.1214.056-.238.084-.35.084-.168 0-.308-.056-.42-.168-.112-.1213-.168-.266-.168-.434 0-.1213.0373-.2427.112-.364.0746-.1307.182-.238.322-.322.336-.2053.7326-.3687 1.19-.49.4573-.1213.924-.182 1.4-.182zm-.644 5.866c.4386 0 .8073-.154 1.106-.462.308-.3173.4806-.7187.518-1.204l.028-.308h-.392c-.5974 0-1.0687.0327-1.414.098-.336.0653-.5787.1773-.728.336-.1494.1493-.224.3547-.224.616 0 .28.098.504.294.672.2053.168.476.252.812.252z"/><path d="m67.9801 27.014c.2053-.0187.3687.028.49.14.1307.1027.196.2567.196.462 0 .28-.0653.49-.196.63s-.3593.2287-.686.266l-.378.042c-.6067.0653-1.05.238-1.33.518-.28.2707-.4433.6813-.49 1.232l-.238 2.94c-.0187.28-.1167.49-.294.63s-.3873.21-.63.21c-.252 0-.4573-.07-.616-.21s-.2287-.35-.21-.63l.448-5.432c.0187-.2613.1167-.4573.294-.588.1867-.14.3967-.21.63-.21.2427 0 .4293.0653.56.196.14.1307.2007.322.182.574l-.028.378c.2427-.3453.5507-.6113.924-.798.3733-.196.7793-.308 1.218-.336z"/><path d="m73.3395 27.014c.2053-.0187.3687.028.49.14.1307.1027.196.2567.196.462 0 .28-.0653.49-.196.63s-.3593.2287-.686.266l-.378.042c-.6067.0653-1.05.238-1.33.518-.28.2707-.4433.6813-.49 1.232l-.238 2.94c-.0187.28-.1167.49-.294.63s-.3873.21-.63.21c-.252 0-.4573-.07-.616-.21s-.2287-.35-.21-.63l.448-5.432c.0187-.2613.1167-.4573.294-.588.1867-.14.3967-.21.63-.21.2427 0 .4293.0653.56.196.14.1307.2007.322.182.574l-.028.378c.2427-.3453.5507-.6113.924-.798.3733-.196.7793-.308 1.218-.336z"/><path d="m75.1429 34.084c-.252 0-.4574-.07-.616-.21-.1587-.14-.2287-.35-.21-.63l.448-5.418c.0186-.2707.1166-.4713.294-.602.1773-.14.392-.21.644-.21s.4526.07.602.21c.1586.1307.2286.3313.21.602l-.448 5.418c-.0187.28-.1167.49-.294.63-.1774.14-.3874.21-.63.21zm.728-8.316c-.3174 0-.5694-.084-.756-.252-.1867-.1773-.28-.406-.28-.686s.0933-.504.28-.672c.1866-.168.4386-.252.756-.252.308 0 .5553.084.742.252.196.168.294.392.294.672s-.0934.5087-.28.686c-.1867.168-.4387.252-.756.252z"/><path d="m84.1435 30.276c0 .196-.056.35-.168.462-.1026.1027-.238.154-.406.154h-4.158c.028.616.2007 1.0827.518 1.4.3267.3173.784.476 1.372.476.3267 0 .6207-.0373.882-.112.2707-.084.5367-.2053.798-.364.1214-.0653.238-.098.35-.098.1587 0 .28.0607.364.182.0934.112.14.252.14.42 0 .2707-.1166.4947-.35.672-.252.1867-.588.3407-1.008.462-.4106.1213-.84.182-1.288.182-.7 0-1.3113-.1353-1.834-.406-.5226-.28-.9286-.672-1.218-1.176-.28-.504-.42-1.092-.42-1.764 0-.728.1447-1.3767.434-1.946.2894-.5787.6954-1.0267 1.218-1.344.5227-.3267 1.12-.49 1.792-.49.952 0 1.6847.2847 2.198.854.5227.5693.784 1.3813.784 2.436zm-2.912-2.058c-.9893 0-1.5773.5787-1.764 1.736h3.192c.0094-.5693-.112-.9987-.364-1.288-.252-.2987-.6066-.448-1.064-.448z"/><path d="m89.691 27.014c.2054-.0187.3687.028.49.14.1307.1027.196.2567.196.462 0 .28-.0653.49-.196.63-.1306.14-.3593.2287-.686.266l-.378.042c-.6066.0653-1.05.238-1.33.518-.28.2707-.4433.6813-.49 1.232l-.238 2.94c-.0186.28-.1166.49-.294.63-.1773.14-.3873.21-.63.21-.252 0-.4573-.07-.616-.21-.1586-.14-.2286-.35-.21-.63l.448-5.432c.0187-.2613.1167-.4573.294-.588.1867-.14.3967-.21.63-.21.2427 0 .4294.0653.56.196.14.1307.2007.322.182.574l-.028.378c.2427-.3453.5507-.6113.924-.798.3734-.196.7794-.308 1.218-.336z"/><path d="m97.0172 25.558-.21 2.716h3.8638c.252 0 .448.0607.588.182s.21.2847.21.49c0 .4947-.294.742-.882.742h-3.9058l-.224 2.884h4.1578c.252 0 .448.0653.588.196.14.1213.21.2847.21.49 0 .2427-.079.4293-.238.56-.149.1213-.368.182-.658.182h-5.0678c-.28 0-.49-.0747-.63-.224-.1307-.1493-.1867-.3593-.168-.63l.644-8.176c.0187-.2613.1073-.4667.266-.616s.3733-.224.644-.224h5.0818c.252 0 .444.0607.574.182.14.1213.21.2847.21.49 0 .504-.294.756-.882.756z"/><path d="m107.809 27.35c.196-.196.411-.294.644-.294.206 0 .378.07.518.21s.21.308.21.504c0 .2053-.093.4013-.28.588l-2.086 2.128 1.862 2.24c.131.1587.196.3313.196.518 0 .224-.088.42-.266.588-.168.168-.364.252-.588.252-.233 0-.434-.098-.602-.294l-1.75-2.184-2.128 2.212c-.186.1867-.387.28-.602.28-.205 0-.382-.0747-.532-.224-.14-.1493-.21-.3267-.21-.532 0-.2147.094-.4153.28-.602l2.226-2.268-1.736-2.086c-.14-.168-.21-.3407-.21-.518 0-.224.084-.42.252-.588.178-.168.378-.252.602-.252.234 0 .439.1027.616.308l1.624 2.002z"/><path d="m114.435 26.986c.578 0 1.087.1353 1.526.406.438.2613.779.644 1.022 1.148.252.4947.378 1.0733.378 1.736 0 .756-.136 1.4233-.406 2.002-.271.5787-.654 1.0313-1.148 1.358-.495.3173-1.064.476-1.708.476-.486 0-.915-.098-1.288-.294-.364-.196-.654-.476-.868-.84l-.224 2.87c-.019.2333-.117.42-.294.56-.168.14-.378.21-.63.21-.262 0-.472-.0747-.63-.224-.15-.14-.215-.3313-.196-.574l.63-7.98c.018-.2613.107-.462.266-.602.168-.1493.382-.224.644-.224.261 0 .462.0747.602.224.149.14.219.3407.21.602l-.014.196c.224-.336.522-.5927.896-.77.373-.1867.784-.28 1.232-.28zm-.644 5.768c.569 0 1.012-.21 1.33-.63.326-.4293.49-1.0127.49-1.75 0-.644-.154-1.1433-.462-1.498-.299-.364-.719-.546-1.26-.546-.56 0-.999.2147-1.316.644-.318.4293-.476 1.008-.476 1.736 0 .672.144 1.1807.434 1.526.289.3453.709.518 1.26.518z"/><path d="m122.955 27.014c.205-.0187.368.028.49.14.13.1027.196.2567.196.462 0 .28-.066.49-.196.63-.131.14-.36.2287-.686.266l-.378.042c-.607.0653-1.05.238-1.33.518-.28.2707-.444.6813-.49 1.232l-.238 2.94c-.019.28-.117.49-.294.63-.178.14-.388.21-.63.21-.252 0-.458-.07-.616-.21-.159-.14-.229-.35-.21-.63l.448-5.432c.018-.2613.116-.4573.294-.588.186-.14.396-.21.63-.21.242 0 .429.0653.56.196.14.1307.2.322.182.574l-.028.378c.242-.3453.55-.6113.924-.798.373-.196.779-.308 1.218-.336z"/><path d="m130.067 30.276c0 .196-.056.35-.168.462-.102.1027-.238.154-.406.154h-4.158c.028.616.201 1.0827.518 1.4.327.3173.784.476 1.372.476.327 0 .621-.0373.882-.112.271-.084.537-.2053.798-.364.122-.0653.238-.098.35-.098.159 0 .28.0607.364.182.094.112.14.252.14.42 0 .2707-.116.4947-.35.672-.252.1867-.588.3407-1.008.462-.41.1213-.84.182-1.288.182-.7 0-1.311-.1353-1.834-.406-.522-.28-.928-.672-1.218-1.176-.28-.504-.42-1.092-.42-1.764 0-.728.145-1.3767.434-1.946.29-.5787.696-1.0267 1.218-1.344.523-.3267 1.12-.49 1.792-.49.952 0 1.685.2847 2.198.854.523.5693.784 1.3813.784 2.436zm-2.912-2.058c-.989 0-1.577.5787-1.764 1.736h3.192c.01-.5693-.112-.9987-.364-1.288-.252-.2987-.606-.448-1.064-.448z"/><path d="m133.711 34.112c-.429 0-.859-.0513-1.288-.154-.42-.1027-.793-.2473-1.12-.434-.308-.1587-.462-.3967-.462-.714 0-.1773.056-.3313.168-.462s.252-.196.42-.196c.112 0 .233.0373.364.112.644.3733 1.33.56 2.058.56.849 0 1.274-.2427 1.274-.728 0-.2333-.117-.4107-.35-.532-.233-.1307-.597-.266-1.092-.406s-.901-.2753-1.218-.406c-.308-.14-.574-.3407-.798-.602-.224-.2707-.331-.6207-.322-1.05.019-.644.299-1.1573.84-1.54s1.26-.574 2.156-.574c.373 0 .756.056 1.148.168.401.1027.728.2427.98.42.252.1587.378.378.378.658 0 .1773-.056.3313-.168.462-.103.1213-.233.182-.392.182-.112 0-.233-.0373-.364-.112-.579-.336-1.148-.504-1.708-.504-.411 0-.728.0653-.952.196-.215.1307-.322.322-.322.574 0 .2333.117.4153.35.546.233.1213.597.252 1.092.392s.896.28 1.204.42c.308.1307.574.3267.798.588s.336.602.336 1.022c0 .6627-.266 1.1807-.798 1.554s-1.269.56-2.212.56z"/><path d="m140.506 34.112c-.43 0-.859-.0513-1.288-.154-.42-.1027-.794-.2473-1.12-.434-.308-.1587-.462-.3967-.462-.714 0-.1773.056-.3313.168-.462s.252-.196.42-.196c.112 0 .233.0373.364.112.644.3733 1.33.56 2.058.56.849 0 1.274-.2427 1.274-.728 0-.2333-.117-.4107-.35-.532-.234-.1307-.598-.266-1.092-.406-.495-.14-.901-.2753-1.218-.406-.308-.14-.574-.3407-.798-.602-.224-.2707-.332-.6207-.322-1.05.018-.644.298-1.1573.84-1.54.541-.3827 1.26-.574 2.156-.574.373 0 .756.056 1.148.168.401.1027.728.2427.98.42.252.1587.378.378.378.658 0 .1773-.056.3313-.168.462-.103.1213-.234.182-.392.182-.112 0-.234-.0373-.364-.112-.579-.336-1.148-.504-1.708-.504-.411 0-.728.0653-.952.196-.215.1307-.322.322-.322.574 0 .2333.116.4153.35.546.233.1213.597.252 1.092.392.494.14.896.28 1.204.42.308.1307.574.3267.798.588s.336.602.336 1.022c0 .6627-.266 1.1807-.798 1.554s-1.27.56-2.212.56z"/><path d="m55.44 4.5c-.48-.16-1.02-.04-1.34.32h-2.82c.3-.88.52-1.82.7-2.78.1-.6-.08-1.02-.74-1.119999-.62-.1-1.1.179999-1.18.819999-.62 4.24-2.02 7.28-3.84 9.54-.18.22-.18.46 0 .66s.44.24.68.04c.72-.6 1.46-1.42 2.14-2.44.54.58 1.04 1.22 1.54 2.04.4.6.88.68 1.36.22.48-.44.5-.96.02-1.42-.68-.68-1.48-1.32-2.32-1.82.44-.76.84-1.62 1.2-2.52h3.18c.16 0 .24.1.22.26-.76 5.26-2.78 9.46-7.54 12.66-.32.22-.38.46-.22.72.16.28.38.32.72.16 4.3-2.1 8.2-6.64 9.02-14.12.06-.54-.18-1.02-.78-1.22zm8.16 6.6c-1.08-1.24-2.72-2.8-4.14-3.88v-5.32c0-.58-.34-.919998-.92-.919998s-.92.339998-.92.919998v17.16c0 .58.34.92.92.92s.92-.34.92-.92v-10.24c.84 1.08 1.72 2.38 2.46 3.58.44.72 1.06.84 1.64.38.6-.48.5-1.14.04-1.68z"/><path d="m81.86 11.02c-.58 0-.9.32-.9.9v4.88h-5.02v-7.04h4.98c.64 0 1-.36 1-1v-5.22c0-.56-.32-.88-.92-.88-.56 0-.88.32-.88.88v4.74c0 .14-.1.24-.24.24h-3.94v-6.6c0-.58-.34-.92-.92-.92s-.92.34-.92.92v6.6h-3.92c-.14 0-.24-.1-.24-.24v-4.74c0-.56-.36-.88-.92-.88s-.88.32-.88.88v5.22c0 .64.36 1 1 1h4.96v7.04h-4.98v-4.88c0-.58-.32-.9-.9-.9s-.9.32-.9.9v7.08c0 .58.32.9.9.9s.9-.32.9-.9v-.96h11.84v.92c0 .58.32.9.9.9s.9-.32.9-.9v-7.04c0-.58-.32-.9-.9-.9z"/><path d="m89.88 3.7h1.58c.3.56.58 1.16.78 1.78.18.5.56.7 1.06.44.46-.24.48-.66.2-1.1-.3-.46-.6-.82-.92-1.12h2.38c.36 0 .56-.2.56-.56 0-.34-.2-.54-.56-.54h-4.32l.24-.4c.32-.56.16-1.08-.42-1.279999-.62-.22-1.06-.019999-1.32.599999-.78 1.82-1.68 3.02-2.92 4.24-.22.24-.22.46-.08.66.18.26.44.26.7.08 1.08-.7 2.16-1.72 3.04-2.8zm4.42 2.06c.16.22.38.22.62.06.74-.46 1.58-1.2 2.34-2.12h1.74c.22.5.4 1.04.6 1.6.16.48.5.68.98.48.5-.2.6-.6.32-1.06-.22-.38-.5-.74-.76-1.02h3.08c.36 0 .56-.2.56-.56 0-.34-.2-.54-.56-.54h-5.18c.04-.04.06-.08.08-.12.5-.76.38-1.32-.18-1.539999-.58-.22-1.02 0-1.26.579999-.58 1.42-1.2 2.52-2.3 3.62-.24.24-.22.42-.08.62zm.58 4.02h-2.04c.28-.36.54-.76.78-1.2.24-.42.26-.72.06-.94h.84c.34 0 .54-.2.54-.54s-.2-.52-.54-.52h-2.72v-1.18c0-.52-.3-.8-.82-.8s-.82.3-.82.8v1.18h-2.66c-.34 0-.54.2-.54.52 0 .34.2.54.54.54h.64c0 .1.02.22.08.34.24.52.52 1.02.74 1.58.04.08.06.16.12.22h-2.02c-.34 0-.54.2-.54.54s.2.54.54.54h7.82c.34 0 .54-.2.54-.54s-.2-.54-.54-.54zm8.94 5.92c-.06-.32-.24-.46-.5-.46s-.42.18-.42.54c0 2.08-.16 2.32-1.1 2.36-1.24.06-2.12.06-3.36 0-.78-.04-.92-.1-.96-1.16h4.36c.28 0 .46-.18.46-.48 0-.28-.18-.46-.46-.46h-4.36v-.8h4.3c.32 0 .48-.16.48-.48s-.16-.46-.48-.46h-4.3v-.8h4.3c.28 0 .46-.18.46-.48 0-.28-.18-.46-.46-.46h-4.3v-.66c0-.14.1-.24.24-.24h3.88c.64 0 1-.36 1-1v-1.34c0-.64-.36-1-1-1h-3.8c-.14 0-.24-.1-.24-.24v-.56h5.1c.36 0 .56-.2.56-.56 0-.34-.2-.54-.56-.54h-5.1v-.62c0-.54-.3-.84-.84-.84s-.84.3-.84.84v2.6c0 .64.36 1 1 1h3.84c.14 0 .24.1.24.24v.7c0 .14-.1.24-.24.24h-3.92c-.64 0-1 .36-1 1v5.66c0 1.7.46 2.26 2.42 2.34 1.38.06 2.56.06 3.94 0 1.7-.08 2.22-.92 1.66-3.88zm-13.64-6.78c-.3-.46-.66-.92-1.06-1.28h3.32c-.06.08-.1.2-.14.32-.18.7-.32 1.2-.52 1.82h-1.62c.24-.24.22-.54.02-.86zm3.32 2.64h-4.92c-.64 0-1 .36-1 1v6.5c0 .52.3.82.82.82s.82-.3.82-.82v-2.56h3.68v1.06c0 .68-.22.84-1.78.66-.34-.04-.54.04-.6.32s.04.48.32.6c2.46 1.06 3.66.28 3.66-1.36v-5.22c0-.64-.36-1-1-1zm-4.04 1.04h3.2c.14 0 .24.1.24.24v.78h-3.68v-.78c0-.14.1-.24.24-.24zm-.24 2.96v-1h3.68v1z"/><path d="m112.6 16.16c.36.6.88.64 1.36.3.46-.32.5-.86.1-1.36-.82-1.04-2.04-2.12-3.14-2.88.06-.42.12-.86.14-1.3h2.42c.38 0 .6-.22.6-.6 0-.36-.22-.56-.6-.56h-2.36v-.58-2.7h2.04c.38 0 .6-.22.6-.6 0-.36-.22-.56-.6-.56h-2.04v-3.24c0-.56-.3-.86-.86-.86s-.86.3-.86.86v3.24h-2.34c-.38 0-.58.2-.58.56s.2.6.58.6h2.34v2.46.82h-2.68c-.38 0-.58.2-.58.56s.2.6.58.6h2.62c-.2 3.04-.96 5.48-3.18 7.84-.22.24-.22.48-.04.68.2.22.44.26.72.04 2.18-1.66 3.32-3.68 3.86-6.02.64.8 1.32 1.78 1.9 2.7zm11.22-1.22c-.04-.32-.24-.46-.5-.46s-.46.14-.46.48c0 2.72-.08 2.86-1.24 2.86-.96 0-1.02-.12-1.02-.78v-4.14h.98c.64 0 1-.36 1-1v-9.02c0-.64-.36-1-1-1h-6.2c-.64 0-1 .36-1 1v9.02c0 .64.36 1 1 1h.86c-.2 2.74-1.28 4.56-3.94 5.94-.34.18-.44.38-.34.66.12.28.34.38.68.26 3.2-1.06 5.04-3.24 5.34-6.86h.9v4.24c0 1.96.44 2.2 2.78 2.2 2.44 0 2.52-.96 2.16-4.4zm-7.72-11.66c0-.14.1-.24.24-.24h4.28c.14 0 .24.1.24.24v1.9h-4.76zm0 3.02h4.76v2.02h-4.76zm0 5.2v-2.06h4.76v2.06c0 .14-.1.24-.24.24h-4.28c-.14 0-.24-.1-.24-.24z"/><path d="m127.02 5.4h7.14v.86h-5.14c-.34 0-.54.2-.54.52 0 .34.2.54.54.54h5.14v.8h-5.9c-.34 0-.54.2-.54.52 0 .34.2.54.54.54h5.9v.78h-6.82c-.36 0-.56.2-.56.54s.2.56.56.56h15.46c.36 0 .56-.2.56-.56 0-.34-.2-.54-.56-.54h-6.92v-.78h5.8c.34 0 .54-.2.54-.54s-.2-.52-.54-.52h-5.8v-.8h4.58c.64 0 1-.36 1-1v-.92h1.72c.36 0 .56-.2.56-.56 0-.34-.2-.54-.56-.54h-1.72v-.92c0-.64-.36-1-1-1h-4.58v-.52c0-.56-.32-.86-.86-.86s-.86.3-.86.86v.52h-4.92c-.34 0-.54.2-.54.52 0 .34.2.54.54.54h4.92v.86h-7.14c-.36 0-.56.2-.56.54s.2.56.56.56zm8.86-1.96h3.62c.14 0 .24.1.24.24v.62h-3.86zm0 1.96h3.86v.62c0 .14-.1.24-.24.24h-3.62zm-6.26 6.44c-.64 0-1 .36-1 1v3.2c0 .64.36 1 1 1h10.74c.64 0 1-.36 1-1v-3.2c0-.64-.36-1-1-1zm4.54 2.08h-3.82v-.8c0-.14.1-.24.24-.24h3.58zm5.48 0h-3.78v-1.04h3.54c.14 0 .24.1.24.24zm-5.48 2.08h-3.58c-.14 0-.24-.1-.24-.24v-.8h3.82zm5.48-.24c0 .14-.1.24-.24.24h-3.54v-1.04h3.78zm3.78 2.1h-16.82c-.38 0-.58.2-.58.58s.2.58.58.58h16.82c.38 0 .58-.2.58-.58s-.2-.58-.58-.58z"/></g><path clip-rule="evenodd" d="m7.45169 14.9292c-1.40886 2.9184-1.45165 6.4888-1.45165 9.0707v4.9993c0 1.6568-1.34314 3.0007-2.99999 3.0007-1.65684 0-2.9999838-1.3432-2.9999838-3v-5c0-.0466-.00001598-.0942-.00003219-.1426-.00082445-2.4653-.00243727-7.2885 2.04836599-11.5366 1.08165-2.2405 2.75325-4.37503 5.29354-5.92743 2.53165-1.54712 5.72476-2.39327 9.65806-2.39327s7.1264.84615 9.6581 2.39327c2.5402 1.5524 4.2119 3.68693 5.2935 5.92743 2.0508 4.2481 2.0492 9.0713 2.0484 11.5366-.0001.0485-.0001.096-.0001.1426v4.9993c0 1.6568-1.3431 3.0007-3 3.0007-1.6568 0-2.9999-1.3432-2.9999-3v-5c0-2.5819-.0428-6.1523-1.4517-9.0707-.6683-1.3844-1.6217-2.5624-3.0189-3.4163-1.4059-.8591-3.4628-1.51292-6.5294-1.51292s-5.1235.65382-6.5294 1.51292c-1.39717.8539-2.35056 2.0319-3.01891 3.4163z" fill="#4f5af8" fill-rule="evenodd"/></svg>