<?xml version="1.0" standalone="no"?>
<!DOCTYPE svg PUBLIC "-//W3C//DTD SVG 20010904//EN"
 "http://www.w3.org/TR/2001/REC-SVG-20010904/DTD/svg10.dtd">
<svg version="1.0" xmlns="http://www.w3.org/2000/svg"
 width="512.000000pt" height="512.000000pt" viewBox="0 0 512.000000 512.000000"
 preserveAspectRatio="xMidYMid meet">
<metadata>
Created by potrace 1.14, written by Peter Selinger 2001-2017
</metadata>
<g transform="translate(0.000000,512.000000) scale(0.100000,-0.100000)"
fill="#000000" stroke="none">
<path d="M0 2560 l0 -2560 2560 0 2560 0 0 2560 0 2560 -2560 0 -2560 0 0
-2560z m2945 1656 c329 -49 601 -148 840 -308 136 -90 322 -272 418 -408 146
-208 268 -506 326 -797 59 -294 68 -433 70 -1029 1 -449 0 -485 -18 -543 -10
-34 -34 -81 -52 -104 -156 -204 -457 -192 -593 23 -50 78 -50 73 -57 650 -7
562 -12 645 -54 856 -114 567 -420 865 -972 946 -132 20 -504 16 -623 -6 -592
-108 -876 -438 -967 -1126 -11 -84 -17 -264 -22 -665 -6 -486 -9 -555 -24
-594 -38 -98 -127 -181 -228 -212 -198 -62 -396 45 -454 246 -15 51 -17 114
-12 598 5 590 11 676 67 959 112 560 387 985 805 1245 238 148 561 251 895
283 131 12 533 4 655 -14z"/>
</g>
</svg>
